# xmcd CD database file
#
# Track frame offsets:
#	150
#	21690
#	40222
#	63172
#	83117
#	106777
#	132182
#	148160
#	168855
#	186480
#
# Disc length: 2786 seconds
#
# Revision: 1
# Processed by: cddbd v1.5.2PL0 Copyright (c) Steve Scherf et al.
# Submitted via: CDex 1.51
#
DISCID=890ae00a
DTITLE=בעז שרעבי - כשאת נוגעת בי
DYEAR=1998
DGENRE=מזרחי
TTITLE0=כשאת נוגעת בי
TTITLE1=המכתב
TTITLE2=צובט לי בלב
TTITLE3=חודש בלעדייך
TTITLE4=את לא יוצאת לי מהראש ומהלב
TTITLE5=שמיים
TTITLE6=לב שנשבר
TTITLE7=שינית את חיי
TTITLE8=יש לך יום הולדת
TTITLE9=היה חזק
EXTD=Submited by the One and Only !!!!\nKatzav Amir YEAR: 1998
EXTT0=
EXTT1=
EXTT2=
EXTT3=
EXTT4=
EXTT5=
EXTT6=
EXTT7=
EXTT8=
EXTT9=
PLAYORDER=
